# xmcd
#
# Track frame offsets: 
#        150
#        4096
#        25348
#        28013
#        41161
#        62308
#        70620
#        84748
#        100920
#        103634
#        118113
#        137282
#
# Disc length: 2105 seconds
#
# Revision: 0
# Processed by: cddbd v1.5.2PL0 Copyright (c) Steve Scherf et al.
# Submitted via: ExactAudioCopyFreeDBPlugin 1.0
#
DISCID=9308370c
DTITLE=Lucille Crew - Lucille
DYEAR=2015
DGENRE=Hip-Hop
TTITLE0=A Rebel's Word
TTITLE1=Pull Through
TTITLE2=Back To The Regular
TTITLE3=Day Drifter
TTITLE4=Big City
TTITLE5=Bluesin'
TTITLE6=Grandma's Hands
TTITLE7=Moses
TTITLE8=Her Majesty
TTITLE9=Depp In Da' Mud 2.0
TTITLE10=Too Much
TTITLE11=Different Life
EXTD=
EXTT0=
EXTT1=
EXTT2=
EXTT3=
EXTT4=
EXTT5=
EXTT6=
EXTT7=
EXTT8=
EXTT9=
EXTT10=
EXTT11=
PLAYORDER=
